<svg width="12" height="14" viewBox="0 0 12 14" fill="none" xmlns="http://www.w3.org/2000/svg">
<path fill-rule="evenodd" clip-rule="evenodd" d="M8.39563 1.75867H11.3151C11.432 1.75867 11.5441 1.80492 11.6268 1.88725C11.7095 1.96959 11.7559 2.08128 11.7559 2.19772C11.7559 2.31416 11.7095 2.4258 11.6268 2.50814C11.5441 2.59048 11.432 2.63677 11.3151 2.63677H0.506285C0.389363 2.63677 0.277215 2.59048 0.194539 2.50814C0.111862 2.4258 0.0654297 2.31416 0.0654297 2.19772C0.0654297 2.08128 0.111862 1.96959 0.194539 1.88725C0.277215 1.80492 0.389363 1.75867 0.506285 1.75867H3.42475L3.75685 0.356642C3.77943 0.260223 3.83415 0.174256 3.91208 0.112774C3.99 0.0512934 4.08655 0.017904 4.18596 0.018067H7.6354C7.73477 0.0180788 7.83121 0.0515597 7.9091 0.113013C7.98699 0.174466 8.04175 0.260307 8.06449 0.356642L8.39563 1.75867ZM7.28565 0.89616H4.53471L4.33095 1.75867H7.49041L7.28565 0.89616ZM10.6205 3.50017H1.1999C1.08305 3.50043 0.971057 3.5468 0.888436 3.62909C0.805816 3.71137 0.759299 3.82286 0.75904 3.93922V13.5426C0.75904 13.6591 0.805473 13.7708 0.888149 13.8531C0.970826 13.9354 1.08297 13.9817 1.1999 13.9817H10.6205C10.6784 13.9818 10.7358 13.9706 10.7893 13.9485C10.8429 13.9265 10.8915 13.8942 10.9325 13.8534C10.9734 13.8126 11.0059 13.7641 11.028 13.7108C11.0501 13.6575 11.0615 13.6003 11.0613 13.5426V3.93827C11.0611 3.82199 11.0145 3.71059 10.9319 3.62847C10.8492 3.54634 10.7372 3.50017 10.6205 3.50017ZM10.1796 13.1036H1.64075V4.37827H10.1767L10.1796 13.1036ZM3.45704 11.7757C3.57396 11.7757 3.68611 11.7295 3.76879 11.6472C3.85146 11.5648 3.8979 11.4531 3.8979 11.3367V5.86424C3.8979 5.7478 3.85146 5.63611 3.76879 5.55378C3.68611 5.47144 3.57396 5.4252 3.45704 5.4252C3.34012 5.4252 3.228 5.47144 3.14532 5.55378C3.06264 5.63611 3.01619 5.7478 3.01619 5.86424V11.3367C3.01606 11.3944 3.02737 11.4515 3.04948 11.5049C3.07159 11.5582 3.10407 11.6067 3.14503 11.6474C3.186 11.6882 3.23464 11.7206 3.28818 11.7426C3.34173 11.7646 3.39911 11.7759 3.45704 11.7757ZM5.91015 11.7757C5.96808 11.7759 6.02547 11.7646 6.07902 11.7426C6.13256 11.7206 6.18122 11.6882 6.22219 11.6474C6.26315 11.6067 6.29561 11.5582 6.31772 11.5049C6.33983 11.4515 6.35114 11.3944 6.35101 11.3367V5.86424C6.35101 5.7478 6.30458 5.63611 6.2219 5.55378C6.13922 5.47144 6.02708 5.4252 5.91015 5.4252C5.79323 5.4252 5.68111 5.47144 5.59843 5.55378C5.51576 5.63611 5.4693 5.7478 5.4693 5.86424V11.3367C5.4693 11.4531 5.51576 11.5648 5.59843 11.6472C5.68111 11.7295 5.79323 11.7757 5.91015 11.7757ZM8.53311 11.7426C8.47957 11.7646 8.42218 11.7759 8.36425 11.7757C8.24733 11.7757 8.13521 11.7295 8.05253 11.6472C7.96985 11.5648 7.9234 11.4531 7.9234 11.3367V5.86424C7.9234 5.7478 7.96985 5.63611 8.05253 5.55378C8.13521 5.47144 8.24733 5.4252 8.36425 5.4252C8.48117 5.4252 8.5933 5.47144 8.67597 5.55378C8.75865 5.63611 8.80511 5.7478 8.80511 5.86424V11.3367C8.80524 11.3944 8.79392 11.4515 8.77181 11.5049C8.7497 11.5582 8.71722 11.6067 8.67626 11.6474C8.6353 11.6882 8.58666 11.7206 8.53311 11.7426Z" fill="#fff"/>
</svg>
