<svg xmlns="http://www.w3.org/2000/svg" viewBox="0 0 63.6 39.95"><defs><style>.cls-1{fill:#777;}</style></defs><g id="Layer_2" data-name="Layer 2"><g id="Layer_1-2" data-name="Layer 1"><g id="group"><path class="cls-1" d="M52.7,34.79v4.55c0,.26-.22.61-.49.61H11.39c-.27,0-.49-.35-.49-.61V34.79c0-1.91.36-2.69,1.82-3.52,1.17-.67,9-5.18,12.72-6.77V17.66a4.68,4.68,0,0,1-1.82-4.06V8.18C23.62,3.68,26.35,0,31.8,0S40,3.68,40,8.18V13.6a4.66,4.66,0,0,1-1.82,4V24.5c3.92,1.59,11.55,6.1,12.72,6.77C52.33,32.1,52.7,32.88,52.7,34.79ZM11.37,28.9l.25-.15c4.15-2.36,7.46-4.17,9.91-5.4A23.26,23.26,0,0,0,18.17,22V17.19C20,16.61,20,15.72,20,14.38V11.14C20,8,18.33,5.45,14.54,5.45S9.09,8,9.09,11.14v3.24c0,1.36,0,2.25,1.81,2.82V22c-3.63,1.11-8.43,4.25-9.24,4.71A2.56,2.56,0,0,0,0,29.12v3.16c0,.19.15.43.34.43h8A5.57,5.57,0,0,1,11.37,28.9Zm50.57-2.23c-.82-.46-5.61-3.6-9.24-4.71V17.19c1.81-.58,1.81-1.47,1.81-2.81V11.14c0-3.13-1.66-5.69-5.45-5.69S43.61,8,43.61,11.14v3.24c0,1.36,0,2.25,1.82,2.82V22a24.24,24.24,0,0,0-3.32,1.36c3.48,1.74,7.63,4.14,9.47,5.2l.65.38a5.57,5.57,0,0,1,3,3.81h8c.19,0,.34-.24.34-.43V29.12A2.56,2.56,0,0,0,61.94,26.67Z"/></g></g></g></svg>