<svg xmlns="http://www.w3.org/2000/svg" viewBox="0 0 48.35 40"><defs><style>.cls-1,.cls-2{fill:#fff;}.cls-1{stroke:#777;stroke-linecap:round;stroke-linejoin:round;stroke-width:3px;}.cls-3{fill:#beb239;}.cls-4{fill:none;stroke:#beb239;stroke-miterlimit:10;stroke-width:1.48px;}</style></defs><g id="Layer_2" data-name="Layer 2"><g id="Layer_1-2" data-name="Layer 1"><polyline class="cls-1" points="36.86 1.5 17.85 1.5 17.85 38.5 46.85 38.5 46.85 11.99"/><polygon class="cls-1" points="36.86 1.5 46.85 11.99 36.86 11.99 36.86 1.5"/><rect class="cls-2" x="10.66" y="2.36" width="12.33" height="35.27" transform="translate(-9.21 17.76) rotate(-45)"/><rect class="cls-3" x="2.85" y="14.1" width="23.77" height="7.2" rx="0.68" transform="translate(12.63 40.63) rotate(-135)"/><path class="cls-4" d="M27.59,30.88l-4.86-1.23a.29.29,0,0,1-.14-.5l3.6-3.6a.3.3,0,0,1,.5.14L28,30.52A.3.3,0,0,1,27.59,30.88Z"/><path class="cls-3" d="M27.86,31l-2.08-.52a.14.14,0,0,1-.06-.22l1.11-1.1.43-.43a.12.12,0,0,1,.21.06L28,30.81A.13.13,0,0,1,27.86,31Z"/><ellipse class="cls-3" cx="26.24" cy="29.21" rx="1.35" ry="0.51" transform="translate(-12.97 27.11) rotate(-45)"/></g></g></svg>