<svg xmlns="http://www.w3.org/2000/svg" viewBox="0 0 45.52 40"><defs><style>.cls-1,.cls-2{fill:#fff;}.cls-1{stroke:#777;stroke-linecap:round;stroke-linejoin:round;stroke-width:3px;}.cls-3{fill:#84a93f;}</style></defs><g id="Layer_2" data-name="Layer 2"><g id="Layer_1-2" data-name="Layer 1"><polyline class="cls-1" points="34.03 1.5 15.02 1.5 15.02 38.5 44.02 38.5 44.02 11.99"/><polygon class="cls-1" points="34.03 1.5 44.02 11.99 34.03 11.99 34.03 1.5"/><circle class="cls-2" cx="15.02" cy="20" r="15.02"/><g id="ok"><path class="cls-3" d="M15,7.53A12.47,12.47,0,1,0,27.49,20,12.49,12.49,0,0,0,15,7.53Zm0,21.63A9.16,9.16,0,1,1,24.19,20,9.17,9.17,0,0,1,15,29.16ZM21.19,18,13.55,25.6a.34.34,0,0,1-.48,0L10.9,23.43,10.43,23l-1.6-1.59a.34.34,0,0,1,0-.48L11,18.71a.34.34,0,0,1,.48,0l1.59,1.6a.34.34,0,0,0,.48,0l5-5a.34.34,0,0,1,.48,0l2.18,2.16A.33.33,0,0,1,21.19,18Z"/></g></g></g></svg>