<svg xmlns="http://www.w3.org/2000/svg" viewBox="0 0 45.52 40"><defs><style>.cls-1,.cls-2{fill:#fff;}.cls-1{stroke:#777;stroke-linecap:round;stroke-linejoin:round;stroke-width:3px;}.cls-3{fill:#777;}</style></defs><g id="Layer_2" data-name="Layer 2"><g id="Layer_1-2" data-name="Layer 1"><polyline class="cls-1" points="34.03 1.5 15.02 1.5 15.02 38.5 44.02 38.5 44.02 11.99"/><polygon class="cls-1" points="34.03 1.5 44.02 11.99 34.03 11.99 34.03 1.5"/><circle class="cls-2" cx="15.02" cy="20" r="15.02"/><g id="ban"><path class="cls-3" d="M15,7.53A12.47,12.47,0,1,0,27.49,20,12.49,12.49,0,0,0,15,7.53Zm0,3.31a9.17,9.17,0,0,1,4.89,1.42L7.29,24.89a9.14,9.14,0,0,1,7.73-14Zm0,18.32a9.05,9.05,0,0,1-4.88-1.42L22.76,15.11A9.14,9.14,0,0,1,15,29.16Z"/></g></g></g></svg>