<svg xmlns="http://www.w3.org/2000/svg" viewBox="0 0 48.12 40.17"><defs><style>.cls-1,.cls-2{fill:#fff;}.cls-1{stroke:#777;stroke-linecap:round;stroke-linejoin:round;stroke-width:3px;}.cls-3{fill:#777;}.cls-4{fill:#beb239;}</style></defs><g id="Layer_2" data-name="Layer 2"><g id="Layer_1-2" data-name="Layer 1"><polyline class="cls-1" points="36.29 1.5 17.28 1.68 17.62 38.67 46.62 38.41 46.38 11.89"/><polygon class="cls-1" points="36.29 1.5 46.38 11.89 36.39 11.99 36.29 1.5"/><circle class="cls-2" cx="16.43" cy="18.69" r="13.66"/><rect class="cls-3" x="14.31" y="12.03" width="5.61" height="13.21"/><path class="cls-4" d="M.17,32.38l2.51,2.51a.59.59,0,0,0,.83,0l6.9-6.9a11.17,11.17,0,1,0-3.34-3.34l-6.9,6.9A.59.59,0,0,0,.17,32.38Zm16.26-6.15A7.61,7.61,0,1,1,24,18.62,7.61,7.61,0,0,1,16.43,26.23Z"/><path class="cls-2" d="M16.43,12.52a6.11,6.11,0,1,1-6.1,6.11,6.12,6.12,0,0,1,6.1-6.11m0-1.5A7.61,7.61,0,1,0,24,18.63,7.61,7.61,0,0,0,16.43,11Z"/></g></g></svg>